<svg xmlns="http://www.w3.org/2000/svg" viewBox="0 0 480 360" width="480" height="360" role="img" aria-label="KI-Stress-Test mit Gegenfragen">
  <defs>
    <pattern id="g5dots" width="22" height="22" patternUnits="userSpaceOnUse">
      <circle cx="2" cy="2" r="1" fill="#28251d" opacity="0.05"></circle>
    </pattern>
  </defs>
  <rect width="480" height="360" rx="28" fill="#f4f2ec"></rect>
  <rect width="480" height="360" rx="28" fill="url(#g5dots)"></rect>
  <rect x="0.75" y="0.75" width="478.5" height="358.5" rx="27.25" fill="none" stroke="#28251d" stroke-opacity="0.10"></rect>

  
  <g>
    <path d="M84 96 h170 a18 18 0 0 1 18 18 v74 a18 18 0 0 1 -18 18 h-150 l-22 22 v-22 h0 a18 18 0 0 1 -16 -18 v-74 a18 18 0 0 1 18 -18 z" fill="#f9f8f5" stroke="#28251d" stroke-opacity="0.30" stroke-width="1.75"></path>
    <g fill="#28251d" opacity="0.22">
      <rect x="104" y="124" width="120" height="7" rx="3.5"></rect>
      <rect x="104" y="140" width="92" height="7" rx="3.5"></rect>
      <rect x="104" y="156" width="104" height="7" rx="3.5"></rect>
    </g>
  </g>

  
  <g>
    <path d="M244 176 h150 a18 18 0 0 1 18 18 v74 a18 18 0 0 1 -18 18 h-130 l-22 22 v-22 a18 18 0 0 1 -16 -18 v-74 a18 18 0 0 1 18 -18 z" fill="#01696f" fill-opacity="0.12" stroke="#01696f" stroke-width="1.75"></path>
    <g fill="#01696f">
      <rect x="266" y="204" width="120" height="7" rx="3.5"></rect>
      <rect x="266" y="220" width="96" height="7" rx="3.5" fill-opacity="0.6"></rect>
      <rect x="266" y="236" width="110" height="7" rx="3.5" fill-opacity="0.6"></rect>
    </g>
    
    <circle cx="392" cy="160" r="15" fill="#01696f"></circle>
    <path d="M387 156 a5 5 0 0 1 10 0 c0 4 -5 4 -5 8" fill="none" stroke="#fff" stroke-width="2" stroke-linecap="round"></path>
    <circle cx="392" cy="170" r="1.6" fill="#fff"></circle>
  </g>
</svg>